<?xml version="1.0" encoding="UTF-8"?>
<svg width="19px" height="15px" viewBox="0 0 19 15" version="1.1" xmlns="http://www.w3.org/2000/svg" xmlns:xlink="http://www.w3.org/1999/xlink">
    <!-- Generator: Sketch 54.1 (76490) - https://sketchapp.com -->
    <title>IconSyncing18</title>
    <desc>Created with Sketch.</desc>
    <g id="ICON" stroke="none" stroke-width="1" fill="none" fill-rule="evenodd">
        <g id="IconSyncing18" fill="#000000" fill-rule="nonzero">
            <path d="M14.7247335,2.16415545 L14.7247335,2.16415545 L13.2319524,3.65693643 C12.2768626,2.70184651 10.9574181,2.11111111 9.5,2.11111111 C6.58516382,2.11111111 4.22222222,4.47405271 4.22222222,7.38888889 L2.11111111,7.38888889 C2.11111111,3.30811824 5.41922935,0 9.5,0 C11.5403853,0 13.3876075,0.827029562 14.7247335,2.16415545 Z M4.22222222,12.6136224 L4.22222222,12.6136224 L5.7150032,11.1208413 C6.67009312,12.0759312 7.98953757,12.6666667 9.44695566,12.6666667 C12.3617918,12.6666667 14.7247335,10.303725 14.7247335,7.38888889 L16.8358446,7.38888889 C16.8358446,11.4696595 13.5277263,14.7777778 9.44695566,14.7777778 C7.40657033,14.7777778 5.55934811,13.9507482 4.22222222,12.6136224 Z M5.70012192,8.23317077 L3.79987808,10.7668292 C3.44768721,11.2364171 2.88316826,11.2331133 2.53345525,10.7668292 L0.633211411,8.23317077 C0.281020542,7.76358295 0.468230095,7.38888889 1.04582119,7.38888889 L5.28751214,7.38888889 C5.85730398,7.38888889 6.04983492,7.76688676 5.70012192,8.23317077 Z M18.3667886,6.54460701 C18.7165016,7.01089101 18.5239706,7.38888889 17.9541788,7.38888889 L13.7124879,7.38888889 C13.1348968,7.38888889 12.9476872,7.01419483 13.2998781,6.54460701 L15.2001219,4.01094854 C15.549835,3.54466454 16.1143539,3.54136073 16.4665447,4.01094854 L18.3667886,6.54460701 Z" id="Combined-Shape"></path>
        </g>
    </g>
</svg>